<svg width="0" height="0" class="hidden">
  <symbol xmlns="http://www.w3.org/2000/svg" viewBox="0 0 124.045 17.332" id="slintel_logo_color">
    <path d="M21.154.266h3.23V14.22h7.279l-2 2.916h-8.5zm92.559-.065l3.229.04-.175 13.954 7.278.091-2.041 2.891-8.5-.107zM38.772.266h3.23v16.871h-3.23zm23.717 0h3.133v16.871h-3.063L53.883 5.52v11.617h-3.157V.266h3.061l8.7 11.641zm8.507 0h16.568l-2 2.868h-4.586v14h-3.253v-14h-4.72zm22.102 0h12.653l-2 2.82h-7.42v4.17h9.423l-2 2.82h-7.419v4.242h9.423l-2 2.82h-10.66zM12.744 9.69a5.006 5.006 0 0 0-1.868-1.495 21.221 21.221 0 0 0-2.808-1.012 18.872 18.872 0 0 1-1.94-.663 3.675 3.675 0 0 1-1.18-.772 1.586 1.586 0 0 1-.47-1.169 1.359 1.359 0 0 1 .675-1.205 3.752 3.752 0 0 1 1.965-.427h5.112l2-2.947H7.117a7.831 7.831 0 0 0-3.181.6 5.048 5.048 0 0 0-2.218 1.7 4.3 4.3 0 0 0-.784 2.567 4.023 4.023 0 0 0 .771 2.567 4.85 4.85 0 0 0 1.856 1.458 23.235 23.235 0 0 0 2.8.989q1.252.362 1.976.651a3.5 3.5 0 0 1 1.193.759 1.706 1.706 0 0 1-.3 2.6 4.12 4.12 0 0 1-2.109.487H2l-2 2.947h7.116a8.536 8.536 0 0 0 3.277-.6 5.2 5.2 0 0 0 2.29-1.748 4.447 4.447 0 0 0 .831-2.686 4.112 4.112 0 0 0-.77-2.601z"></path>
  </symbol>
</svg>