<svg xmlns="http://www.w3.org/2000/svg" width="30" height="30" viewBox="0 0 30 30"><defs><style>.a,.d{fill:none;}.a{stroke:#fff;opacity:0;}.b{fill:#6ec194;}.c{stroke:none;}</style></defs><g transform="translate(-53 -792)"><g class="a" transform="translate(53 792)"><rect class="c" width="30" height="30"/><rect class="d" x="0.5" y="0.5" width="29" height="29"/></g><path class="b" d="M303.292,415.454l-.544-.544a2.192,2.192,0,0,0-3.1,0l-8.292,8.291a.579.579,0,0,0-.144.249l-1.09,3.936a.566.566,0,0,0,.544.716.583.583,0,0,0,.15-.02l3.935-1.092a.55.55,0,0,0,.251-.145l8.29-8.291A2.2,2.2,0,0,0,303.292,415.454Zm-9.732,10.694-2.083.579.577-2.085Zm7.713-7.173-6.645,6.645-2.046-2.046,6.643-6.645Zm-.826-3.267a1.06,1.06,0,0,1,1.5,0l.545.544a1.063,1.063,0,0,1,0,1.5l-.422.422-2.047-2.047Z" transform="translate(-229.001 385.732)"/></g></svg>