<svg xmlns="http://www.w3.org/2000/svg" width="34" height="34" viewBox="0 0 34 34"><defs><style>.a,.d{fill:none;}.a{stroke:#fff;opacity:0.002;}.b{fill:#d1cff5;}.c{stroke:none;}</style></defs><g transform="translate(-84 -203)"><g class="a" transform="translate(84 203)"><rect class="c" width="34" height="34"/><rect class="d" x="0.5" y="0.5" width="33" height="33"/></g><g transform="translate(91 210)"><path class="b" d="M18.933,11.375H16.878V8.581h2.055a.645.645,0,1,0,0-1.29H16.878V5.064A2.363,2.363,0,0,0,14.514,2.7H12.519V.645A.657.657,0,0,0,11.865,0a.644.644,0,0,0-.645.645V2.7H8.426V.645a.645.645,0,1,0-1.29,0V2.7H5.064A2.363,2.363,0,0,0,2.7,5.064V7.291H.645a.645.645,0,1,0,0,1.29H2.7v2.794H.645a.645.645,0,0,0,0,1.29H2.7v1.849a2.363,2.363,0,0,0,2.364,2.364H7.136v2.055a.645.645,0,1,0,1.29,0V16.878h2.794v2.055a.645.645,0,1,0,1.29,0V16.878h1.995a2.363,2.363,0,0,0,2.364-2.364V12.665h2.055a.65.65,0,0,0,.645-.645A.642.642,0,0,0,18.933,11.375ZM15.58,14.514a1.075,1.075,0,0,1-1.075,1.075H5.064A1.075,1.075,0,0,1,3.99,14.514V5.064A1.075,1.075,0,0,1,5.064,3.99h9.441A1.075,1.075,0,0,1,15.58,5.064v9.449Z"/><path class="b" d="M10.764,7.27a3.474,3.474,0,1,0,3.474,3.474A3.475,3.475,0,0,0,10.764,7.27Zm0,5.649a2.184,2.184,0,1,1,2.184-2.184A2.187,2.187,0,0,1,10.764,12.919Z" transform="translate(-1.022 -1.019)"/></g></g></svg>