<svg xmlns="http://www.w3.org/2000/svg" width="38" height="38" viewBox="0 0 38 38"><defs><style>.a{fill:#fff;opacity:0;}.b{fill:#62bc8b;}</style></defs><g transform="translate(-501 -470)"><rect class="a" width="38" height="38" transform="translate(501 470)"/><g transform="translate(500.565 469.592)"><path class="b" d="M36.142,24.389l.011.011-.013-.014a3.147,3.147,0,0,0-4.269-1.15l-7.353,4.245a3.111,3.111,0,0,0-2.1-.817H15.575l-1.7-1.707a4.313,4.313,0,0,0-3.053-1.267H5.306V22.65a.752.752,0,0,0-.75-.75H2.187a.752.752,0,1,0,0,1.5H3.815V35H2.18a.745.745,0,0,0,0,1.49H4.565a.75.75,0,0,0,.75-.75V34.361l7.064,2.015a3.1,3.1,0,0,0,.851.119h7.365a3.1,3.1,0,0,0,1.563-.421l12.848-7.415a3.123,3.123,0,0,0,1.136-4.27Zm-1.128,1.983a1.636,1.636,0,0,1-.763.992L21.4,34.784a1.673,1.673,0,0,1-.819.218H13.224a1.377,1.377,0,0,1-.446-.065L5.306,32.808V25.187h5.523a2.8,2.8,0,0,1,1.987.831l1.93,1.929a.766.766,0,0,0,.527.215h7.142a1.672,1.672,0,0,1,1.141.466,2.51,2.51,0,0,1,.2.231,1.638,1.638,0,0,1-1.341,2.574H15.867a.745.745,0,1,0,0,1.49h6.566a3.107,3.107,0,0,0,2.91-4.19l7.187-4.148a1.7,1.7,0,0,1,2.2.371A1.635,1.635,0,0,1,35.014,26.372Z"/><path class="b" d="M18.885,23.393A10.492,10.492,0,1,0,8.393,12.9,10.5,10.5,0,0,0,18.885,23.393Zm0-19.485A8.992,8.992,0,1,1,9.893,12.9,9,9,0,0,1,18.885,3.908Z"/><path class="b" d="M18.885,17.164a1.779,1.779,0,0,1-1.776-1.777.711.711,0,0,0-1.422,0A3.2,3.2,0,0,0,18.175,18.5V19.3a.711.711,0,1,0,1.421,0V18.5a3.2,3.2,0,0,0-.711-6.316,1.777,1.777,0,1,1,1.777-1.776.71.71,0,0,0,1.421,0A3.2,3.2,0,0,0,19.6,7.3V6.5a.711.711,0,1,0-1.421,0V7.3a3.2,3.2,0,0,0,.71,6.316,1.776,1.776,0,1,1,0,3.553Z"/></g></g></svg>