<svg xmlns="http://www.w3.org/2000/svg" width="34" height="34" viewBox="0 0 34 34"><defs><style>.a,.d{fill:none;}.a{stroke:#fff;opacity:0;}.b{fill:#6b69a5;}.c{stroke:none;}</style></defs><g transform="translate(-133 -203)"><g class="a" transform="translate(133 203)"><rect class="c" width="34" height="34"/><rect class="d" x="0.5" y="0.5" width="33" height="33"/></g><g transform="translate(140 210)"><path class="b" d="M19.681,19.208H17.97V17.179a2.989,2.989,0,0,0,2.364-2.923c0-.636-.593-5.133-2.992-5.133s-2.992,4.5-2.992,5.133a2.987,2.987,0,0,0,2.322,2.906V19.2H13.559V1.5a1.512,1.512,0,0,0-1.5-1.5H3.336a1.506,1.506,0,0,0-1.5,1.5v17.7H.645a.645.645,0,0,0,0,1.29H19.681a.645.645,0,0,0,0-1.29Zm-4.033-4.944c0-.937.757-3.843,1.7-3.843s1.7,2.906,1.7,3.843a1.7,1.7,0,0,1-3.4,0ZM3.121,1.5a.213.213,0,0,1,.215-.215h8.727a.213.213,0,0,1,.215.215v17.7H3.121Z"/><path class="b" d="M11.005,3.25H5.855a.645.645,0,1,0,0,1.29h5.15a.645.645,0,1,0,0-1.29Z" transform="translate(-0.73 -0.456)"/><path class="b" d="M11.005,7.25H5.855a.645.645,0,0,0,0,1.29h5.15a.645.645,0,0,0,0-1.29Z" transform="translate(-0.73 -1.016)"/><path class="b" d="M11.005,11.25H5.855a.645.645,0,1,0,0,1.29h5.15a.645.645,0,1,0,0-1.29Z" transform="translate(-0.73 -1.577)"/><path class="b" d="M11.005,15.25H5.855a.645.645,0,1,0,0,1.29h5.15a.645.645,0,1,0,0-1.29Z" transform="translate(-0.73 -2.138)"/><path class="b" d="M11.005,19.25H5.855a.645.645,0,1,0,0,1.29h5.15a.645.645,0,1,0,0-1.29Z" transform="translate(-0.73 -2.699)"/></g></g></svg>