<svg xmlns="http://www.w3.org/2000/svg" width="38" height="38" viewBox="0 0 38 38"><defs><style>.a{fill:#fff;opacity:0;}.b{fill:#e3a46d;}</style></defs><g transform="translate(-69.5 -161.5)"><rect class="a" width="38" height="38" transform="translate(69.5 161.5)"/><path class="b" d="M35.361,9.906l.005-.005c-.011-.021-.025-.039-.035-.06-.05-.094-.086-.2-.138-.289a.746.746,0,0,0-.106-.125A11.174,11.174,0,0,0,32.21,6.109a9.768,9.768,0,0,0-1.744-1.048.877.877,0,0,0-.1-.076,8.864,8.864,0,0,0-6.659-.3l-.163.059q-.354.131-.7.29c-.088.041-.175.081-.262.125-.2.1-.392.207-.585.321-.1.057-.194.112-.289.173-.191.121-.376.254-.56.39-.084.062-.171.119-.254.185q-.357.282-.695.6c-.022.021-.046.039-.068.06l-.013.011A11.285,11.285,0,0,0,16.958,3.1a9.22,9.22,0,0,0-5.586-1.917A9.5,9.5,0,0,0,4.128,4.667a12.644,12.644,0,0,0-2.943,8.258,12.644,12.644,0,0,0,2.943,8.258,9.912,9.912,0,0,0,4.74,3.128l-.458,1.7a1.459,1.459,0,0,0,1.407,1.836h1.02a2.514,2.514,0,0,1-.17,1.836,4.079,4.079,0,0,0,0,3.71,2.494,2.494,0,0,1,0,2.266.792.792,0,0,0,1.41.723,4.087,4.087,0,0,0,0-3.711,2.49,2.49,0,0,1,0-2.267,4.091,4.091,0,0,0,.383-2.557h.465a1.459,1.459,0,0,0,1.408-1.836l-.457-1.7a9.569,9.569,0,0,0,4.018-2.364A10.529,10.529,0,0,0,24.126,27.3L23.667,29a1.457,1.457,0,0,0,1.408,1.836h1.019a2.513,2.513,0,0,1-.17,1.836,4.081,4.081,0,0,0,0,3.711.789.789,0,0,0,.7.43.791.791,0,0,0,.7-1.153,2.488,2.488,0,0,1,0-2.266,4.1,4.1,0,0,0,.383-2.558h.466A1.457,1.457,0,0,0,29.59,29l-.458-1.7a9.922,9.922,0,0,0,4.74-3.127,12.644,12.644,0,0,0,2.943-8.258A13.063,13.063,0,0,0,35.361,9.906ZM9.982,26.265l.443-1.65a8.864,8.864,0,0,0,1.892,0l.444,1.649Zm7.827-16.2c-.11.218-.214.438-.311.663-.036.083-.068.167-.1.25-.1.247-.195.5-.279.75-.023.068-.042.136-.063.2-.085.27-.165.542-.232.819-.014.055-.023.111-.036.165-.067.292-.129.585-.176.884,0,.025-.006.051-.01.076a13.607,13.607,0,0,0-.163,2.059h.006a13.2,13.2,0,0,0,.766,4.45,7.892,7.892,0,0,1-5.837,2.7c-4.744,0-8.6-4.557-8.6-10.157s3.859-10.156,8.6-10.156a8.631,8.631,0,0,1,7.6,5.406c-.043.055-.079.116-.12.172-.111.151-.217.305-.321.462-.082.124-.163.249-.24.376q-.17.277-.325.564C17.914,9.852,17.861,9.956,17.809,10.061Zm7.43,19.193.444-1.65a9,9,0,0,0,1.892,0l.443,1.65Zm1.389-3.184c-4.743,0-8.6-4.556-8.6-10.156a11.81,11.81,0,0,1,.388-3.017c1.1-4.123,4.361-7.123,8.21-7.123A8.59,8.59,0,0,1,34.132,11a11.531,11.531,0,0,1,1.1,4.913C35.23,21.514,31.372,26.07,26.628,26.07Z" transform="translate(68.815 161.814)"/></g></svg>