<svg xmlns="http://www.w3.org/2000/svg" width="38" height="38" viewBox="0 0 38 38"><defs><style>.a{fill:#fff;opacity:0;}.b{fill:#26c6b8;}</style></defs><g transform="translate(-500.5 -463.5)"><rect class="a" width="38" height="38" transform="translate(500.5 463.5)"/><path class="b" d="M-6.027,94.286l-5.437-7.341a.762.762,0,0,0-.612-.308.759.759,0,0,0-.612.308l-5.438,7.341a.761.761,0,0,0-.068.795.763.763,0,0,0,.68.419h1.957v3.681a2.772,2.772,0,0,0-1.277-.31h-1.36a2.8,2.8,0,0,0-2.8,2.8v1.588a2.773,2.773,0,0,0-1.278-.31h-1.359a2.8,2.8,0,0,0-2.8,2.8v1.587a2.792,2.792,0,0,0-1.278-.31h-1.359a2.8,2.8,0,0,0-2.793,2.723h-.008v1.587a2.785,2.785,0,0,0-1.277-.31h-1.36a2.8,2.8,0,0,0-2.8,2.8v4.039a.761.761,0,0,0,.761.761H-9.358a.762.762,0,0,0,.762-.761V95.5h1.957a.76.76,0,0,0,.68-.419A.759.759,0,0,0-6.027,94.286Zm-25.842,22.819h-3.914v-3.277a1.279,1.279,0,0,1,1.277-1.278h1.36a1.279,1.279,0,0,1,1.277,1.278Zm5.438,0h-3.915v-7.277a1.279,1.279,0,0,1,1.278-1.278h1.359a1.279,1.279,0,0,1,1.278,1.278Zm5.437,0h-3.914V105.75a1.279,1.279,0,0,1,1.277-1.278h1.359a1.279,1.279,0,0,1,1.278,1.278Zm5.437,0h-3.914V101.671a1.279,1.279,0,0,1,1.277-1.277h1.36a1.279,1.279,0,0,1,1.277,1.277Zm6.2-23.128a.762.762,0,0,0-.761.762v22.366h-3.915V94.739a.762.762,0,0,0-.761-.762H-16l3.926-5.3,3.926,5.3Z" transform="translate(541.306 379.363)"/></g></svg>