<svg xmlns="http://www.w3.org/2000/svg" width="30" height="30" viewBox="0 0 30 30"><defs><style>.a,.d{fill:none;}.a{stroke:#fff;opacity:0;}.b{fill:#6ec194;}.c{stroke:none;}</style></defs><g transform="translate(-53.4 -792)"><g class="a" transform="translate(53.4 792)"><rect class="c" width="30" height="30"/><rect class="d" x="0.5" y="0.5" width="29" height="29"/></g><path class="b" d="M302.037,424.246a2.579,2.579,0,0,0-1.884.822l-5.217-2.974a2.565,2.565,0,0,0,0-1.439l5.217-2.973a2.569,2.569,0,1,0-.589-1.034l-5.217,2.974a2.575,2.575,0,1,0,0,3.506l5.216,2.974a2.576,2.576,0,1,0,2.473-1.856Zm0,3.962a1.385,1.385,0,1,1,1.386-1.386A1.387,1.387,0,0,1,302.037,428.208Zm0-13.666a1.385,1.385,0,1,1-1.385,1.386A1.388,1.388,0,0,1,302.037,414.542Zm-9.574,5.447a1.386,1.386,0,1,1-1.385,1.386A1.388,1.388,0,0,1,292.463,419.989Z" transform="translate(-228.887 385.648)"/></g></svg>