<svg xmlns="http://www.w3.org/2000/svg" width="15" height="15" viewBox="0 0 15 15"><defs><style>.a{fill:none;}.b{fill:#29275f;}</style></defs><g transform="translate(-414.729 -45.905)"><path class="a" d="M422.229,45.9a7.5,7.5,0,1,1-7.5,7.5A7.5,7.5,0,0,1,422.229,45.9Z"/><path class="b" d="M422.229,46.9a6.5,6.5,0,1,0,6.5,6.5,6.507,6.507,0,0,0-6.5-6.5m0-1a7.5,7.5,0,1,1-7.5,7.5A7.5,7.5,0,0,1,422.229,45.9Z"/><path class="b" d="M422.229,57.229a.75.75,0,0,1-.75-.75V53.205a.75.75,0,0,1,1.5,0v3.274A.75.75,0,0,1,422.229,57.229Z"/><circle class="b" cx="0.75" cy="0.75" r="0.75" transform="translate(421.479 50.205)"/></g></svg>