<svg xmlns="http://www.w3.org/2000/svg" width="38" height="38" viewBox="0 0 38 38"><defs><style>.a{fill:#fff;opacity:0;}.b{fill:#e38be6;}</style></defs><g transform="translate(-68 -697)"><rect class="a" width="38" height="38" transform="translate(68 697)"/><g transform="translate(68.229 653.766)"><path class="b" d="M9.788,70.76a3.459,3.459,0,1,0-5,.039,5.565,5.565,0,0,0-3.019,4.943v.75a1.2,1.2,0,0,0,1.2,1.2h8.715a1.2,1.2,0,0,0,1.2-1.2v-.75A5.563,5.563,0,0,0,9.788,70.76ZM7.27,66.6a1.795,1.795,0,1,1-1.79,1.795A1.795,1.795,0,0,1,7.27,66.6Zm3.949,9.428H3.438v-.17a3.962,3.962,0,0,1,3.074-3.918,3.9,3.9,0,0,1,4.707,3.806Z"/><path class="b" d="M33.131,70.76a3.459,3.459,0,1,0-5,.039,5.564,5.564,0,0,0-3.02,4.943v.75a1.2,1.2,0,0,0,1.2,1.2h8.715a1.2,1.2,0,0,0,1.2-1.2v-.75A5.564,5.564,0,0,0,33.131,70.76ZM30.613,66.6a1.795,1.795,0,1,1-1.791,1.795A1.8,1.8,0,0,1,30.613,66.6Zm3.949,9.428H26.781v-.17a3.962,3.962,0,0,1,3.074-3.918,3.9,3.9,0,0,1,4.707,3.806Z"/><path class="b" d="M21.338,51.064a3.459,3.459,0,1,0-5,.04,5.565,5.565,0,0,0-3.019,4.943v.75a1.2,1.2,0,0,0,1.2,1.2h8.716a1.2,1.2,0,0,0,1.2-1.2v-.75A5.565,5.565,0,0,0,21.338,51.064ZM18.82,46.9a1.795,1.795,0,1,1-1.791,1.794A1.794,1.794,0,0,1,18.82,46.9Zm3.948,9.428h-7.78v-.17a3.961,3.961,0,0,1,3.073-3.918,3.9,3.9,0,0,1,4.707,3.806Z"/><path class="b" d="M7,63.237a.744.744,0,0,0,.527.217.755.755,0,0,0,.515-.2l2.417-2.281a.75.75,0,0,0-1.029-1.091l-1.2,1.135c-.073-1.18.027-4.442,3.166-5.856a.75.75,0,1,0-.616-1.367,7.24,7.24,0,0,0-4.067,7.051l-.962-.951a.75.75,0,0,0-1.055,1.067Z"/><path class="b" d="M26.669,58.575h.009a.75.75,0,0,0,.75-.741l.019-1.641a8.044,8.044,0,0,1,2.477,6.791.751.751,0,0,0,.679.815l.069,0a.75.75,0,0,0,.746-.681,9.5,9.5,0,0,0-2.825-7.912l1.384-.032a.75.75,0,0,0-.034-1.5l-3.243.075a.75.75,0,0,0-.733.741l-.039,3.323A.75.75,0,0,0,26.669,58.575Z"/><path class="b" d="M21.135,72.606a.75.75,0,1,0-1.091,1.029l1.034,1.1h-6.3a.75.75,0,0,0,0,1.5h6.349l-1.073,1.085a.75.75,0,0,0,1.067,1.055l2.28-2.307a.75.75,0,0,0,.012-1.042Z"/></g></g></svg>