<svg xmlns="http://www.w3.org/2000/svg" width="30" height="30" viewBox="0 0 30 30"><defs><style>.a,.d{fill:none;}.a{stroke:#fff;opacity:0;}.b{fill:#6ec194;}.c{stroke:none;}</style></defs><g transform="translate(-53 -792)"><g class="a" transform="translate(53 792)"><rect class="c" width="30" height="30"/><rect class="d" x="0.5" y="0.5" width="29" height="29"/></g><g transform="translate(61.2 799.7)"><path class="b" d="M162.836-15.536a2.67,2.67,0,0,0-2.667,2.667,2.669,2.669,0,0,0,2.667,2.667,2.669,2.669,0,0,0,2.667-2.667A2.67,2.67,0,0,0,162.836-15.536Zm0,4.1a1.43,1.43,0,0,1-1.429-1.429,1.43,1.43,0,0,1,1.429-1.429,1.431,1.431,0,0,1,1.429,1.429A1.43,1.43,0,0,1,162.836-11.441Z" transform="translate(-156.06 20.143)"/><path class="b" d="M167.921-12.894l-.269-.156a.907.907,0,0,1-.459-.794.909.909,0,0,1,.459-.794l.269-.155a1.645,1.645,0,0,0,.6-2.244l-.512-.886a1.629,1.629,0,0,0-1-.766,1.626,1.626,0,0,0-1.246.164l-.269.155a.909.909,0,0,1-.917,0,.906.906,0,0,1-.458-.793v-.311a1.645,1.645,0,0,0-1.643-1.643h-1.024a1.645,1.645,0,0,0-1.642,1.643v.311a.908.908,0,0,1-.459.794.907.907,0,0,1-.916,0l-.27-.155a1.629,1.629,0,0,0-1.246-.164,1.627,1.627,0,0,0-1,.765l-.513.887a1.646,1.646,0,0,0,.6,2.244l.27.155a.908.908,0,0,1,.458.794.906.906,0,0,1-.458.794l-.27.156a1.645,1.645,0,0,0-.6,2.244l.512.886a1.632,1.632,0,0,0,1,.766,1.629,1.629,0,0,0,1.246-.164l.27-.156a.907.907,0,0,1,.916,0,.907.907,0,0,1,.459.794v.311a1.645,1.645,0,0,0,1.642,1.643h1.024a1.645,1.645,0,0,0,1.643-1.643v-.311a.907.907,0,0,1,.458-.794.905.905,0,0,1,.916,0l.27.156A1.636,1.636,0,0,0,167.012-9a1.632,1.632,0,0,0,1-.766l.513-.887A1.646,1.646,0,0,0,167.921-12.894Zm-.471,1.625-.513.887a.4.4,0,0,1-.245.188.41.41,0,0,1-.307-.04l-.269-.156a2.133,2.133,0,0,0-2.155,0,2.133,2.133,0,0,0-1.077,1.866v.311a.406.406,0,0,1-.405.405h-1.024a.405.405,0,0,1-.4-.405v-.311a2.132,2.132,0,0,0-1.078-1.866,2.15,2.15,0,0,0-1.077-.292,2.15,2.15,0,0,0-1.077.292l-.27.156a.411.411,0,0,1-.307.04.4.4,0,0,1-.246-.189l-.512-.886a.406.406,0,0,1,.148-.553l.27-.156a2.132,2.132,0,0,0,1.077-1.866,2.13,2.13,0,0,0-1.077-1.865l-.27-.156a.406.406,0,0,1-.148-.553l.513-.887a.4.4,0,0,1,.245-.188.4.4,0,0,1,.307.04l.269.155a2.131,2.131,0,0,0,2.155,0,2.132,2.132,0,0,0,1.078-1.866v-.311a.405.405,0,0,1,.4-.405h1.024a.406.406,0,0,1,.405.405v.311A2.132,2.132,0,0,0,163.96-17.3a2.133,2.133,0,0,0,2.156,0l.268-.155a.407.407,0,0,1,.308-.04.406.406,0,0,1,.246.188l.512.887a.4.4,0,0,1-.148.553l-.269.156a2.13,2.13,0,0,0-1.078,1.865,2.133,2.133,0,0,0,1.077,1.866l.27.156A.405.405,0,0,1,167.449-11.269Z" transform="translate(-155.191 21.118)"/></g></g></svg>