<svg xmlns="http://www.w3.org/2000/svg" width="34" height="34" viewBox="0 0 34 34"><defs><style>.a,.d{fill:none;}.a{stroke:#fff;opacity:0;}.b{fill:#f64b53;}.c{stroke:none;}</style></defs><g transform="translate(-223 -391)"><g transform="translate(-108 -54)"><g class="a" transform="translate(331 445)"><rect class="c" width="34" height="34"/><rect class="d" x="0.5" y="0.5" width="33" height="33"/></g></g><g transform="translate(0 -5)"><g transform="translate(251.961 318.526)"><path class="b" d="M-3.432,91.789l.008-2.505a.624.624,0,0,0-.623-.628l-9.449-.037a3.757,3.757,0,0,0-4.319-3.094,3.756,3.756,0,0,0-3.095,4.318,3.756,3.756,0,0,0,4.319,3.1,3.758,3.758,0,0,0,3.09-3.067l5.693.024-.007,1.878a.627.627,0,0,0,.624.629.627.627,0,0,0,.629-.624l.007-1.879,1.879.007-.008,1.879a.627.627,0,0,0,.625.628.626.626,0,0,0,.628-.624Zm-11.26-2.55a2.5,2.5,0,0,1-2.515,2.5A2.5,2.5,0,0,1-19.7,89.22a2.506,2.506,0,0,1,2.515-2.5,2.5,2.5,0,0,1,2.495,2.5Z"/></g><path class="b" d="M-33.248,8.8a.645.645,0,0,0,.645.645H-22.45A.645.645,0,0,0-21.8,8.8a.645.645,0,0,0-.645-.645H-32.6A.645.645,0,0,0-33.248,8.8Z" transform="translate(264.248 406.603)"/><path class="b" d="M-25.45,12.155H-32.6a.645.645,0,0,0-.645.645.645.645,0,0,0,.645.645h7.154A.645.645,0,0,0-24.8,12.8.645.645,0,0,0-25.45,12.155Z" transform="translate(264.248 406.042)"/><path class="b" d="M-22.45,16.155H-32.6a.645.645,0,0,0-.645.645.645.645,0,0,0,.645.645H-22.45A.645.645,0,0,0-21.8,16.8.645.645,0,0,0-22.45,16.155Z" transform="translate(264.248 405.482)"/></g></g></svg>