<svg xmlns="http://www.w3.org/2000/svg" width="38" height="38" viewBox="0 0 38 38"><defs><style>.a{fill:#fff;opacity:0;}.b{fill:#14a8d3;}</style></defs><g transform="translate(-68 -488)"><rect class="a" width="38" height="38" transform="translate(68 488)"/><g transform="translate(67.996 487.996)"><path class="b" d="M35.247,22.214H31.2V16.46h4.05a.75.75,0,1,0,0-1.5H31.2V9.553a2.754,2.754,0,0,0-2.75-2.75h-5V2.754a.75.75,0,0,0-1.5,0V6.8H16.192V2.754a.75.75,0,1,0-1.5,0V6.8H9.553A2.754,2.754,0,0,0,6.8,9.553V14.96H2.754a.75.75,0,1,0,0,1.5H6.8v5.754H2.754a.75.75,0,0,0,0,1.5H6.8v4.732a2.753,2.753,0,0,0,2.75,2.75h5.139v4.051a.75.75,0,1,0,1.5,0V31.2h5.754v4.051a.75.75,0,0,0,1.5,0V31.2h5a2.753,2.753,0,0,0,2.75-2.75V23.714h4.05a.75.75,0,0,0,0-1.5ZM29.7,28.446a1.252,1.252,0,0,1-1.25,1.25H9.553a1.252,1.252,0,0,1-1.25-1.25V9.553A1.252,1.252,0,0,1,9.553,8.3H28.447a1.252,1.252,0,0,1,1.25,1.25Z"/><path class="b" d="M18.926,13.113A5.772,5.772,0,1,0,24.7,18.885,5.778,5.778,0,0,0,18.926,13.113Zm0,10.044A4.272,4.272,0,1,1,23.2,18.885,4.276,4.276,0,0,1,18.926,23.157Z"/></g></g></svg>