<svg xmlns="http://www.w3.org/2000/svg" width="30" height="30" viewBox="0 0 30 30"><defs><style>.a,.d{fill:none;}.a{stroke:#fff;opacity:0;}.b{fill:#29275f;}.c{stroke:none;}</style></defs><g transform="translate(-53 -792)"><g class="a" transform="translate(53 792)"><rect class="c" width="30" height="30"/><rect class="d" x="0.5" y="0.5" width="29" height="29"/></g><path class="b" d="M16.027,12.876l-.176-.717a12.45,12.45,0,0,1-.359-2.97V7.609a5.426,5.426,0,0,0-3.755-5.144V1.942a1.642,1.642,0,0,0-3.283,0v.524A5.426,5.426,0,0,0,4.7,7.609V9.188a12.454,12.454,0,0,1-.359,2.97l-.176.717a1.7,1.7,0,0,0,.215,3.382H7.727a2.372,2.372,0,0,0,4.738,0h3.348a1.7,1.7,0,0,0,.215-3.382Zm-4.7,3.382a1.235,1.235,0,0,1-2.458,0Zm3.422-3.828.107.432H5.339l.106-.432a13.636,13.636,0,0,0,.392-3.242V7.609a4.259,4.259,0,1,1,8.518,0V9.188A13.6,13.6,0,0,0,14.747,12.43ZM9.591,2.233V1.942a.5.5,0,0,1,1.008,0v.292c-.166-.016-.335-.023-.5-.023S9.758,2.218,9.591,2.233ZM15.812,15.12H4.379a.561.561,0,0,1,0-1.121H15.812a.561.561,0,0,1,0,1.121Z" transform="translate(57.918 797.7)"/></g></svg>