<svg xmlns="http://www.w3.org/2000/svg" width="34" height="34" viewBox="0 0 34 34"><defs><style>.a,.d{fill:none;}.a{stroke:#fff;opacity:0;}.b{fill:#d1cff5;}.c{stroke:none;}</style></defs><g transform="translate(-296 -203)"><g class="a" transform="translate(296 203)"><rect class="c" width="34" height="34"/><rect class="d" x="0.5" y="0.5" width="33" height="33"/></g><g transform="translate(305 210)"><path class="b" d="M-20.914,3.7a.7.7,0,0,0-.028-.138.706.706,0,0,0-.028-.106.6.6,0,0,0-.06-.089.628.628,0,0,0-.086-.115c-.005,0-.007-.01-.011-.014L-25.743-.868a.641.641,0,0,0-.078-.046.628.628,0,0,0-.123-.071.63.63,0,0,0-.131-.027.617.617,0,0,0-.1-.02H-36.342a.645.645,0,0,0-.645.645v19.4a.645.645,0,0,0,.645.645h14.786a.645.645,0,0,0,.645-.645V3.723C-20.911,3.716-20.914,3.711-20.914,3.7Zm-4.612-2.653,2.277,2.027h-2.277ZM-22.2,18.368H-35.7V.259h8.881V3.723a.645.645,0,0,0,.645.645H-22.2Z" transform="translate(36.987 1.031)"/><path class="b" d="M-33.248,8.8a.645.645,0,0,0,.645.645h8.154A.645.645,0,0,0-23.8,8.8a.645.645,0,0,0-.645-.645H-32.6A.645.645,0,0,0-33.248,8.8Z" transform="translate(36.463 0.603)"/><path class="b" d="M-24.45,12.155H-32.6a.645.645,0,0,0-.645.645.645.645,0,0,0,.645.645h8.154A.645.645,0,0,0-23.8,12.8.645.645,0,0,0-24.45,12.155Z" transform="translate(36.463 0.042)"/><path class="b" d="M-24.45,16.155H-32.6a.645.645,0,0,0-.645.645.645.645,0,0,0,.645.645h8.154A.645.645,0,0,0-23.8,16.8.645.645,0,0,0-24.45,16.155Z" transform="translate(36.463 -0.518)"/></g></g></svg>