<svg xmlns="http://www.w3.org/2000/svg" width="34" height="34" viewBox="0 0 34 34"><defs><style>.a,.d{fill:none;}.a{stroke:#fff;opacity:0;}.b{fill:#f64b53;}.c{stroke:none;}</style></defs><g transform="translate(-256 -203)"><g class="a" transform="translate(256 203)"><rect class="c" width="34" height="34"/><rect class="d" x="0.5" y="0.5" width="33" height="33"/></g><path class="b" d="M16.861,3.439H13.938V2.364A2.363,2.363,0,0,0,11.573,0H7.652A2.363,2.363,0,0,0,5.288,2.364V3.439H2.364A2.363,2.363,0,0,0,0,5.8v9.441a2.363,2.363,0,0,0,2.364,2.364h14.5a2.363,2.363,0,0,0,2.364-2.364V5.8A2.369,2.369,0,0,0,16.861,3.439ZM6.578,2.364A1.075,1.075,0,0,1,7.652,1.29h3.929a1.075,1.075,0,0,1,1.075,1.075V3.439H6.578ZM1.29,5.8A1.075,1.075,0,0,1,2.364,4.729h14.5A1.075,1.075,0,0,1,17.936,5.8v3a1.075,1.075,0,0,1-1.075,1.075h-6.6V8.8a.645.645,0,0,0-1.29,0V9.879h-6.6A1.075,1.075,0,0,1,1.29,8.8ZM16.861,16.319H2.364A1.075,1.075,0,0,1,1.29,15.245V10.894a2.394,2.394,0,0,0,1.075.267h6.6v1.178a.645.645,0,0,0,1.29,0V11.16h6.6a2.394,2.394,0,0,0,1.075-.267v4.351A1.075,1.075,0,0,1,16.861,16.319Z" transform="translate(263 211)"/></g></svg>