<svg xmlns="http://www.w3.org/2000/svg" width="38" height="38" viewBox="0 0 38 38"><defs><style>.a{fill:#fff;opacity:0;}.b{fill:#9883d3;}</style></defs><g transform="translate(-69.5 -895.5)"><g transform="translate(-0.5 -0.5)"><rect class="a" width="38" height="38" transform="translate(70 896)"/><g transform="translate(-13.045 810.515)"><path class="b" d="M89.537,99.676a.75.75,0,0,0,.75-.75V90.259a.75.75,0,0,0-1.5,0v8.667A.75.75,0,0,0,89.537,99.676Z"/><path class="b" d="M93.551,99.393a.75.75,0,0,0,.75-.75V95.9h.917a3.209,3.209,0,1,0-.02-6.418l-1.515.04a.727.727,0,0,0-.34.1.741.741,0,0,0-.542.708v8.308A.75.75,0,0,0,93.551,99.393Zm1.667-8.408a1.709,1.709,0,0,1,0,3.418H94.3V91.009Z"/><path class="b" d="M103.738,99.267c2.131,0,3.865-2.189,3.865-4.879s-1.734-4.879-3.865-4.879-3.866,2.189-3.866,4.879S101.606,99.267,103.738,99.267Zm0-8.258c1.282,0,2.365,1.547,2.365,3.379s-1.083,3.379-2.365,3.379-2.366-1.547-2.366-3.379S102.455,91.009,103.738,91.009Z"/><path class="b" d="M117.237,93.707a3.278,3.278,0,0,0-2.649,5.228l-6.13,7.148a3.254,3.254,0,0,0-1.72-.5,3.292,3.292,0,0,0-3,1.954L97.267,106a3.283,3.283,0,0,0-6.549.335,3.248,3.248,0,0,0,.432,1.6l-3.58,4.172a3.351,3.351,0,1,0,1.223.878l3.369-3.926a3.278,3.278,0,0,0,4.916-1.562l6.382,1.519a3.286,3.286,0,1,0,6.064-1.87l6.206-7.236a3.248,3.248,0,0,0,1.507.382,3.292,3.292,0,0,0,0-6.583Zm-30.9,23.237a1.792,1.792,0,1,1,1.791-1.792A1.794,1.794,0,0,1,86.337,116.944Zm7.672-8.818a1.792,1.792,0,1,1,1.792-1.792A1.793,1.793,0,0,1,94.009,108.126Zm12.729,2.541a1.792,1.792,0,1,1,1.791-1.791A1.793,1.793,0,0,1,106.738,110.667Zm10.5-11.877a1.778,1.778,0,0,1-1.151-.429l-.008-.011-.015-.008a1.783,1.783,0,1,1,1.174.448Z" transform="translate(0 3)"/></g></g></g></svg>