<svg xmlns="http://www.w3.org/2000/svg" width="38" height="38" viewBox="0 0 38 38"><defs><style>.a{fill:#fff;opacity:0;}.b{fill:#bead2c;}</style></defs><g transform="translate(-500 -467)"><rect class="a" width="38" height="38" transform="translate(500 467)"/><g transform="translate(500.649 466.65)"><path class="b" d="M26.718,26.071H25.649V9.476a1.752,1.752,0,0,0-1.75-1.75H13.75A1.753,1.753,0,0,0,12,9.476V26.071h-.893a.75.75,0,0,0,0,1.5H26.718a.75.75,0,0,0,0-1.5ZM13.5,9.476a.251.251,0,0,1,.25-.25H23.9a.251.251,0,0,1,.25.25V26.071H13.5Z"/><path class="b" d="M21.823,10.978H15.836a.75.75,0,0,0,0,1.5h5.987a.75.75,0,0,0,0-1.5Z"/><path class="b" d="M21.823,14.978H15.836a.75.75,0,0,0,0,1.5h5.987a.75.75,0,0,0,0-1.5Z"/><path class="b" d="M21.823,18.978H15.836a.75.75,0,0,0,0,1.5h5.987a.75.75,0,1,0,0-1.5Z"/><path class="b" d="M21.823,22.978H15.836a.75.75,0,0,0,0,1.5h5.987a.75.75,0,1,0,0-1.5Z"/><path class="b" d="M35.593,2.816a.744.744,0,0,0-.163-.246.677.677,0,0,0-.508-.215.217.217,0,0,0-.025,0h0l-4.8.03a.75.75,0,0,0,0,1.5h0l2.972-.018L28.57,8.369a.75.75,0,1,0,1.061,1.06l4.507-4.507L34.12,7.894a.751.751,0,0,0,.746.755h0a.75.75,0,0,0,.75-.745l.029-4.8v0A.749.749,0,0,0,35.593,2.816Z"/><path class="b" d="M35.62,30.095a.75.75,0,0,0-.75-.745h0a.751.751,0,0,0-.746.755l.018,2.973L29.631,28.57a.75.75,0,1,0-1.061,1.061l4.507,4.507L30.1,34.12h0a.75.75,0,0,0,0,1.5l4.8.029h0a.75.75,0,0,0,.75-.752v0Z"/><path class="b" d="M4.922,3.862l2.973.018h0a.75.75,0,0,0,0-1.5l-4.8-.03h0a.187.187,0,0,0-.025,0,.683.683,0,0,0-.508.215.753.753,0,0,0-.219.533v0L2.38,7.9a.75.75,0,0,0,.75.745h0a.751.751,0,0,0,.746-.755L3.862,4.922,8.369,9.429A.75.75,0,0,0,9.43,8.369Z"/><path class="b" d="M8.369,28.57,3.862,33.078,3.88,30.1a.751.751,0,0,0-.746-.755h0a.75.75,0,0,0-.75.745l-.029,4.8v0a.752.752,0,0,0,.75.752h0l4.8-.029a.75.75,0,0,0,0-1.5h0l-2.973.018L9.43,29.631A.75.75,0,1,0,8.369,28.57Z"/></g></g></svg>