<svg xmlns="http://www.w3.org/2000/svg" width="24" height="24" viewBox="0 0 24 24"><defs><style>.a,.d{fill:none;}.a{stroke:#fff;opacity:0;}.b{fill:#6ec194;}.c{stroke:none;}</style></defs><g transform="translate(-252 -785)"><g transform="translate(-190 399)"><g transform="translate(442 386)"><g class="a"><rect class="c" width="24" height="24"/><rect class="d" x="0.5" y="0.5" width="23" height="23"/></g></g></g><g transform="translate(-56.842 421.995)"><path class="b" d="M318.442,379.717a1.692,1.692,0,1,1-2.394-2.393l2.817-2.8a1.692,1.692,0,0,1,2.391,0,.515.515,0,0,0,.331.15h.031a.513.513,0,0,0,.362-.876,2.576,2.576,0,0,0-.455-.367,2.716,2.716,0,0,0-3.386.366l-2.8,2.8a2.715,2.715,0,0,0,1.922,4.632h.006a2.715,2.715,0,0,0,1.91-.793l2.065-2.063a4.046,4.046,0,0,1-1.191-.256Z"/><path class="b" d="M326.232,369.457a2.716,2.716,0,0,0-3.842.09l-2.063,2.061a4.081,4.081,0,0,1,1.187.257l1.6-1.6a1.7,1.7,0,0,1,2.4,2.4l-2.072,2.071-.738.736a1.692,1.692,0,0,1-2.392,0,.51.51,0,0,0-.332-.149h-.031a.513.513,0,0,0-.361.875,2.666,2.666,0,0,0,.772.541l.126.053.062.023.072.026c.032.013.066.024.109.037l.117.032c.086.021.159.037.23.048a2.459,2.459,0,0,0,.271.027h.031s.29,0,.435-.017c.128-.016.373-.067.373-.067a2.715,2.715,0,0,0,1.236-.71l2.808-2.808.087-.087a2.715,2.715,0,0,0-.087-3.838Z"/></g></g></svg>