<svg xmlns="http://www.w3.org/2000/svg" width="40" height="18" viewBox="0 0 40 18"><defs><style>.a{fill:#f64b53;}</style></defs><g transform="translate(-340.8 -211)"><g transform="translate(301 -624)"><path class="a" d="M-619.368,580.19h-33.663a3.152,3.152,0,0,0-3.168,3.13V595.06a3.153,3.153,0,0,0,3.168,3.13h33.663a3.153,3.153,0,0,0,3.168-3.13V583.32A3.152,3.152,0,0,0-619.368,580.19Zm1.782,14.87a1.774,1.774,0,0,1-1.782,1.761h-33.663a1.774,1.774,0,0,1-1.782-1.761V583.32a1.774,1.774,0,0,1,1.782-1.761h33.663a1.774,1.774,0,0,1,1.782,1.761Z" transform="translate(696 254.81)"/><path class="a" d="M-644.514,592.754h-1.611v-3.129h-3.142v3.129h-1.61v-7.3h1.61v2.958h3.142v-2.958h1.611Zm7.212-3.163H-640.4v1.956h3.631v1.208h-5.243v-7.3h5.23v1.218h-3.62v1.74h3.094Zm4.194,1.956h3.421v1.208h-5.032v-7.3h1.611Zm7.057-1.364v2.571h-1.612v-7.3h3.051a3.729,3.729,0,0,1,1.55.3,2.325,2.325,0,0,1,1.029.855,2.266,2.266,0,0,1,.36,1.261,2.037,2.037,0,0,1-.787,1.692,3.446,3.446,0,0,1-2.178.619Zm0-1.218h1.439a1.493,1.493,0,0,0,.975-.28.986.986,0,0,0,.336-.8,1.159,1.159,0,0,0-.338-.867,1.313,1.313,0,0,0-.938-.343h-1.474Z" transform="translate(696.077 254.81)"/></g></g></svg>