<svg xmlns="http://www.w3.org/2000/svg" width="34" height="34" viewBox="0 0 34 34"><defs><style>.a,.d{fill:none;}.a{stroke:#fff;opacity:0;}.b{fill:#d1cff5;}.c{stroke:none;}</style></defs><g transform="translate(-222 -203)"><g class="a" transform="translate(222 203)"><rect class="c" width="34" height="34"/><rect class="d" x="0.5" y="0.5" width="33" height="33"/></g><g transform="translate(229 210)"><path class="b" d="M19.9,1.814c-2.476,0-5.967.206-7.773,2.021A4.488,4.488,0,0,0,11,7.128,5.212,5.212,0,0,0,11.5,9.286a12.247,12.247,0,0,0-1.539,3.2A16.7,16.7,0,0,0,8.6,8.168a4.761,4.761,0,0,0,.937-2.855A4.5,4.5,0,0,0,8.409,2.021C6.595.206,3.1,0,.628,0A.631.631,0,0,0,0,.628C0,3.1.206,6.595,2.021,8.4A4.437,4.437,0,0,0,5.159,9.527a5.444,5.444,0,0,0,2.425-.55A21.6,21.6,0,0,1,9.166,18.03a.628.628,0,0,0,1.255,0A14.751,14.751,0,0,1,12.3,10.369a4.921,4.921,0,0,0,3.07.972A4.467,4.467,0,0,0,18.5,10.215c1.806-1.806,2.021-5.305,2.021-7.773A.631.631,0,0,0,19.9,1.814ZM16.405,6.732l.1-.043h0a.6.6,0,0,0,.241-.808.662.662,0,0,0-.877-.284,10.82,10.82,0,0,0-3.456,2.536,4.538,4.538,0,0,1-.155-1.049,3.285,3.285,0,0,1,.748-2.364c1.049-1.049,3.1-1.591,6.251-1.642-.052,3.156-.593,5.2-1.642,6.251a3.271,3.271,0,0,1-2.364.748,3.439,3.439,0,0,1-2.21-.722A9.413,9.413,0,0,1,16.405,6.732ZM5.047,4.067l-.086-.06c-.095-.069-.172-.12-.224-.163A.632.632,0,0,0,4.3,3.663h0a.653.653,0,0,0-.447.181.628.628,0,0,0,0,.894,4.681,4.681,0,0,0,.481.37,8.4,8.4,0,0,1,2.648,2.76c-1.144.567-3.164.55-4.076-.353-1.049-1.049-1.591-3.1-1.642-6.251,3.156.052,5.2.593,6.251,1.642a3.285,3.285,0,0,1,.748,2.364,4.134,4.134,0,0,1-.37,1.651A9.72,9.72,0,0,0,5.047,4.067Z"/><path class="b" d="M16.972,15.59H13.24a.645.645,0,0,0,0,1.29h3.087v4.686H5.27V16.88H7.712a.645.645,0,0,0,0-1.29H4.625a.65.65,0,0,0-.645.645v5.976a.65.65,0,0,0,.645.645H16.972a.65.65,0,0,0,.645-.645V16.235A.644.644,0,0,0,16.972,15.59Z" transform="translate(-0.558 -2.185)"/></g></g></svg>