<svg xmlns="http://www.w3.org/2000/svg" width="38" height="38" viewBox="0 0 38 38"><defs><style>.a{fill:#fff;opacity:0;}.b{fill:#fc8888;}</style></defs><g transform="translate(-500 -472)"><rect class="a" width="38" height="38" transform="translate(500 472)"/><path class="b" d="M-5.531,56.157a.786.786,0,0,0-1.078-.292l-1.948,1.124a.307.307,0,0,1-.42-.112l-5.583-9.67a.308.308,0,0,1,.113-.42l2.019-1.165a.787.787,0,0,0,.29-1.071.786.786,0,0,0-1.077-.292l-2.019,1.165a1.874,1.874,0,0,0-.851,1.058h-7.868a4.139,4.139,0,0,0-2.924,1.211l-.806.806a9.337,9.337,0,0,0-2.159-.255h-2.443a1.876,1.876,0,0,0-.879-1.158l-2.113-1.22a.777.777,0,0,0-1.065.29l-.011.02a.775.775,0,0,0,.289,1.053l2.113,1.22a.307.307,0,0,1,.112.42l-5.583,9.67a.306.306,0,0,1-.419.112s-1.348-.785-2.2-1.287a.783.783,0,0,0-1.077.284l-.012.021a.783.783,0,0,0,.288,1.068l2.212,1.277a1.863,1.863,0,0,0,.937.252,1.912,1.912,0,0,0,.346-.032l2.271,2.271a2.852,2.852,0,0,0-.053.548,2.816,2.816,0,0,0,.829,2,2.819,2.819,0,0,0,1.845.823,2.943,2.943,0,0,0-.016.3,2.809,2.809,0,0,0,.829,2,2.812,2.812,0,0,0,2,.829h.061c0,.02,0,.041,0,.061a2.812,2.812,0,0,0,.829,2,2.811,2.811,0,0,0,2,.829h.061c0,.02,0,.04,0,.061a2.813,2.813,0,0,0,.83,2,2.812,2.812,0,0,0,2,.829,2.816,2.816,0,0,0,2-.829l1.119-1.12a2.817,2.817,0,0,0,.692-1.132,2.824,2.824,0,0,0,1.679.551,2.822,2.822,0,0,0,2-.828,2.817,2.817,0,0,0,.7-1.161,2.82,2.82,0,0,0,1.545.458,2.813,2.813,0,0,0,2-.83,2.813,2.813,0,0,0,.771-1.43,2.841,2.841,0,0,0,.893.144,2.811,2.811,0,0,0,1.95-.779,2.969,2.969,0,0,0-.069-4.174l-1.716-1.717,3.352-3.352a1.888,1.888,0,0,0,.225.014,1.869,1.869,0,0,0,.938-.252l1.948-1.125A.786.786,0,0,0-5.531,56.157Zm-29.654,7.785a1.251,1.251,0,0,1-.368-.889,1.25,1.25,0,0,1,.368-.889l.679-.679a1.254,1.254,0,0,1,.889-.368,1.254,1.254,0,0,1,.889.368,1.246,1.246,0,0,1,.369.889,1.246,1.246,0,0,1-.369.888l-.679.68A1.259,1.259,0,0,1-35.185,63.942Zm3.547,3.492a1.246,1.246,0,0,1-.889-.369,1.25,1.25,0,0,1-.368-.889,1.249,1.249,0,0,1,.368-.888l1.119-1.12a1.253,1.253,0,0,1,.889-.367,1.253,1.253,0,0,1,.889.367,1.248,1.248,0,0,1,.369.889,1.246,1.246,0,0,1-.369.889l-1.119,1.119A1.248,1.248,0,0,1-31.638,67.434Zm2.891,2.89a1.245,1.245,0,0,1-.889-.368A1.246,1.246,0,0,1-30,69.067a1.248,1.248,0,0,1,.369-.889l1.119-1.119a1.254,1.254,0,0,1,.889-.368,1.254,1.254,0,0,1,.889.368,1.25,1.25,0,0,1,.368.889,1.251,1.251,0,0,1-.368.889l-1.119,1.119A1.249,1.249,0,0,1-28.747,70.324Zm4.9,1.4-1.12,1.119a1.25,1.25,0,0,1-.889.368,1.251,1.251,0,0,1-.889-.368,1.25,1.25,0,0,1-.368-.889,1.251,1.251,0,0,1,.368-.889l1.12-1.119a1.254,1.254,0,0,1,.889-.368,1.254,1.254,0,0,1,.889.368A1.259,1.259,0,0,1-23.848,71.728Zm12.287-6.836a1.259,1.259,0,0,1,0,1.778h0a1.251,1.251,0,0,1-.889.368,1.251,1.251,0,0,1-.889-.368l-7.511-7.511a.788.788,0,0,0-1.113,0,.788.788,0,0,0,0,1.113l6.736,6.736a1.245,1.245,0,0,1,.368.889,1.249,1.249,0,0,1-.368.889,1.25,1.25,0,0,1-.889.368A1.251,1.251,0,0,1-17,68.786l-8.094-8.1a.788.788,0,0,0-1.113,0,.788.788,0,0,0,0,1.113l6.736,6.736a1.247,1.247,0,0,1,.368.889,1.245,1.245,0,0,1-.368.889,1.259,1.259,0,0,1-1.778,0l-1.481-1.481-.007-.006a2.821,2.821,0,0,0-2.056-.82c0-.021,0-.042,0-.063a2.812,2.812,0,0,0-.829-2,2.825,2.825,0,0,0-2.063-.826c0-.021,0-.042,0-.063a2.812,2.812,0,0,0-.829-2,2.828,2.828,0,0,0-2.272-.815,2.808,2.808,0,0,0-.826-1.868,2.833,2.833,0,0,0-4,0l-.68.679,0,0-1.747-1.748,5.478-9.488h2.727a7.608,7.608,0,0,1,.8.042l-.9.9a2.816,2.816,0,0,0-.829,2,2.816,2.816,0,0,0,.829,2,2.822,2.822,0,0,0,2,.828,2.822,2.822,0,0,0,2-.828l2.124-2.125ZM-13.4,60.83l-5.724-5.724a4.464,4.464,0,0,0,1.848-3.619.787.787,0,0,0-.787-.787.787.787,0,0,0-.787.787,2.891,2.891,0,0,1-1.41,2.483l-3-3a.786.786,0,0,0-1.112-.008l-2.685,2.685a1.259,1.259,0,0,1-1.778,0,1.25,1.25,0,0,1-.368-.889,1.25,1.25,0,0,1,.368-.889l3.066-3.066a2.544,2.544,0,0,1,1.811-.75h8.066l5.547,9.608c.013.023.028.044.042.066Z" transform="translate(543.232 430.847)"/></g></svg>