<svg xmlns="http://www.w3.org/2000/svg" width="38" height="38" viewBox="0 0 38 38"><defs><style>.a{fill:#fff;opacity:0;}.b{fill:#8fb572;}</style></defs><g transform="translate(-500.5 -465.5)"><g transform="translate(-0.5 -0.5)"><rect class="a" width="38" height="38" transform="translate(501 466)"/><g transform="translate(544.841 382.753)"><path class="b" d="M-10.388,108.241l-2.183-4.367a.778.778,0,0,0-.7-.43H-35.879a.778.778,0,0,0-.7.43l-2.183,4.367a.778.778,0,0,0,.7,1.127h1.42v10.55a.778.778,0,0,0,.778.779h22.582a.778.778,0,0,0,.778-.779v-10.55h1.42A.778.778,0,0,0-10.388,108.241Zm-26.537-.354,1.481-2.962h9.673l-1.481,2.962Zm11.612,11.329h-9.848v-9.848h8.182a1.039,1.039,0,0,0,.929-.575l.737-1.472v11.9Zm11.328,0h-9.848v-11.9l.737,1.472a1.039,1.039,0,0,0,.929.575h8.182Zm-7.909-11.329-1.481-2.962H-13.7l1.481,2.962Z"/><path class="b" d="M-28.261,90.157l.207,2.832a.705.705,0,0,0,.878.632l2.6-.663,2.6.663a.706.706,0,0,0,.878-.633l.207-2.831,1.413-2.415a.707.707,0,0,0-.328-1l-2.482-1.074-1.742-2.154a.707.707,0,0,0-1.1,0l-1.743,2.154-2.481,1.074a.706.706,0,0,0-.329,1Zm2.319-3.28,1.369-1.692,1.369,1.693,2.013.871-1.146,1.957-.164,2.252-2.072-.528-2.072.527-.164-2.251-1.146-1.958Z"/><path class="b" d="M-20.611,101.223a.74.74,0,0,0,.74.74h0a.74.74,0,0,0,.74-.74V99.86c0-3.3,1.08-4.8,3.056-7.181a.742.742,0,0,0-.093-1.044.744.744,0,0,0-1.047.1c-2.2,2.669-3.4,4.479-3.4,8.125Z"/><path class="b" d="M-30.016,99.86v1.363a.74.74,0,0,0,.74.74h0a.74.74,0,0,0,.74-.74V99.86c0-3.646-1.2-5.456-3.4-8.124a.744.744,0,0,0-1.048-.1.744.744,0,0,0-.093,1.044C-31.1,95.062-30.016,96.559-30.016,99.86Z"/><path class="b" d="M-25.313,96.077v5.145a.74.74,0,0,0,.74.741.74.74,0,0,0,.74-.741V96.077a.74.74,0,0,0-.74-.741A.74.74,0,0,0-25.313,96.077Z"/></g></g></g></svg>