<svg xmlns="http://www.w3.org/2000/svg" width="34" height="34" viewBox="0 0 34 34"><defs><style>.a{fill:#fff;opacity:0;}.b{fill:#d1cff5;}</style></defs><g transform="translate(-30 -203)"><rect class="a" width="34" height="34" transform="translate(30 203)"/><path class="b" d="M104.046-7.912a.637.637,0,0,0,.318.084.644.644,0,0,0,.561-.325c.01-.017,1.005-1.7,2.429-1.7a3.566,3.566,0,0,1,1.969.569,6.566,6.566,0,0,0,1.953.761c2.14.44,3.318-.673,4.358-1.656a3.936,3.936,0,0,1,2.493-1.426.645.645,0,0,0,.611-.677.638.638,0,0,0-.678-.611,5.126,5.126,0,0,0-3.314,1.777c-.967.914-1.727,1.636-3.211,1.33a5.314,5.314,0,0,1-1.6-.632,4.8,4.8,0,0,0-2.583-.725c-2.188,0-3.5,2.251-3.549,2.347A.645.645,0,0,0,104.046-7.912Z" transform="translate(-63.91 234.146)"/><path class="b" d="M105.243-20.46h9.341a.645.645,0,0,0,.645-.645.645.645,0,0,0-.645-.645h-9.341a.645.645,0,0,0-.645.645A.645.645,0,0,0,105.243-20.46Z" transform="translate(-63.172 236.247)"/><path class="b" d="M105.243-16.46h5.842a.645.645,0,0,0,.645-.645.645.645,0,0,0-.645-.645h-5.842a.645.645,0,0,0-.645.645A.645.645,0,0,0,105.243-16.46Z" transform="translate(-63.172 235.687)"/><path class="b" d="M120.232-25.979h-18.92a.86.86,0,0,0-.86.86V-6.2a.86.86,0,0,0,.86.86h18.92a.86.86,0,0,0,.86-.86v-18.92A.86.86,0,0,0,120.232-25.979Zm-.43,19.35h-18.06v-18.06H119.8Z" transform="translate(-63.452 235.979)"/></g></svg>