<svg xmlns="http://www.w3.org/2000/svg" width="38" height="38" viewBox="0 0 38 38"><defs><style>.a{fill:#fff;opacity:0;}.b{fill:#eb949e;}</style></defs><g transform="translate(-500.5 -471.5)"><rect class="a" width="38" height="38" transform="translate(500.5 471.5)"/><g transform="translate(500.37 471.678)"><path class="b" d="M24.422,9.663h2.431v2.431a.75.75,0,0,0,1.5,0V9.663h2.431a.75.75,0,0,0,0-1.5H28.353V5.732a.75.75,0,0,0-1.5,0V8.163H24.422a.75.75,0,1,0,0,1.5Z"/><path class="b" d="M10.425,11.1h6.091a.75.75,0,0,0,0-1.5H10.425a.75.75,0,0,0,0,1.5Z"/><path class="b" d="M18.516,15.005H10.425a.75.75,0,1,0,0,1.5h8.091a.75.75,0,1,0,0-1.5Z"/><path class="b" d="M18.516,20.411H10.425a.75.75,0,0,0,0,1.5h8.091a.75.75,0,0,0,0-1.5Z"/><path class="b" d="M18.516,25.818H10.425a.75.75,0,0,0,0,1.5h8.091a.75.75,0,1,0,0-1.5Z"/><path class="b" d="M18.516,31.224H10.425a.75.75,0,1,0,0,1.5h8.091a.75.75,0,1,0,0-1.5Z"/><path class="b" d="M34.06,27.269c0-2.051-1.521-7.98-4.422-7.98-2.933,0-4.544,5.994-4.544,7.98a4.479,4.479,0,0,0,3.769,4.411c0,.021-.012.04-.012.062V35.4H23.425V15.246A7.59,7.59,0,1,0,20.986,5.2H7.606a2.1,2.1,0,0,0-2.1,2.1V35.4H3.38a.75.75,0,0,0,0,1.5H33.31a.75.75,0,0,0,0-1.5H30.351V31.742c0-.024-.011-.044-.013-.067A4.481,4.481,0,0,0,34.06,27.269ZM27.6,2.822a6.092,6.092,0,1,1-6.092,6.091A6.1,6.1,0,0,1,27.6,2.822ZM7.005,7.3a.6.6,0,0,1,.6-.6H20.341a7.551,7.551,0,0,0,1.584,7.232V35.4H7.005ZM29.577,30.252a2.986,2.986,0,0,1-2.983-2.983c0-2.142,1.674-6.48,3.044-6.48,1.344,0,2.922,4.284,2.922,6.48A2.986,2.986,0,0,1,29.577,30.252Z"/></g></g></svg>