<svg xmlns="http://www.w3.org/2000/svg" width="63" height="60.84" viewBox="0 0 63 60.84"><defs><style>.a{fill:#e6f4ff;}.b{fill:#fff;}.c{fill:#c6cde0;}</style></defs><g transform="translate(-609 -286.16)"><ellipse class="a" cx="31.5" cy="14.5" rx="31.5" ry="14.5" transform="translate(609 318)"/><path class="b" d="M-865.506,616.628l-21.753-11.25.886-12.294-7.68-4.118,7.68-7.106-7.68-6.8,21.6-11.968,7.723,7.28,6.66-7.28,20.739,11.968-6.537,6.8,6.537,7.106-6.537,4.118v12.294Z" transform="translate(1506 -276)"/><path class="c" d="M873.693,72.377l6.221-6.221a1.152,1.152,0,0,0-.26-1.825l-7.479-4.107a1.136,1.136,0,0,0-.111-.053l-13.717-7.54a1.152,1.152,0,0,0-1.369.2l-6.221,6.221-6.221-6.221a1.153,1.153,0,0,0-1.369-.2l-21.306,11.7a1.152,1.152,0,0,0-.26,1.825l6.221,6.221L821.6,78.6a1.152,1.152,0,0,0,.26,1.824l6.438,3.536V95.775a1.153,1.153,0,0,0,.6,1.01l21.306,11.7a1.151,1.151,0,0,0,1.109,0l21.306-11.7a1.152,1.152,0,0,0,.6-1.01V83.958l6.438-3.535a1.152,1.152,0,0,0,.26-1.825ZM858,55.068,872.61,63.1a1.173,1.173,0,0,0,.116.055l4.473,2.456-5.339,5.338-19.2-10.544ZM869.67,72.377,850.758,82.762,831.845,72.377l18.912-10.385Zm-45.354-6.764,19.2-10.544,5.338,5.338-19.2,10.544Zm0,13.529,5.339-5.339,19.2,10.544-5.339,5.339Zm25.29,26.386-19-10.434v-9.87l12.563,6.9a1.152,1.152,0,0,0,1.369-.2l5.069-5.069v18.67Zm21.306-10.434-19,10.434V86.857l5.069,5.069a1.152,1.152,0,0,0,1.369.2l12.564-6.9ZM858,89.686l-5.339-5.339L871.86,73.8l5.339,5.338Z" transform="translate(-210.263 233.67)"/></g></svg>