<svg xmlns="http://www.w3.org/2000/svg" width="34" height="34"  viewBox="0 0 22 26.8">
	<defs>
		<style type="text/css">
			.st0 {
				fill: #E94C56;
			}
		</style>
	</defs>
	<path id="Path_4107" class="st0" d="M19.7,15c-0.8-1-1.8-1.8-2.9-2.3c-1.4-0.6-2.9-1.1-4.3-1.6c-1-0.3-2-0.6-3-1
	C8.8,9.8,8.2,9.4,7.6,8.9C7.2,8.4,6.9,7.8,6.9,7.1c0-0.8,0.4-1.5,1-1.9c0.9-0.5,2-0.7,3-0.7h7.9L22,0H11C9.3,0,7.6,0.3,6.1,0.9
	C4.7,1.5,3.5,2.4,2.7,3.6c-0.8,1.2-1.2,2.6-1.2,4c-0.1,1.4,0.4,2.8,1.2,4c0.8,1,1.7,1.8,2.9,2.3c1.4,0.6,2.9,1.1,4.3,1.5
	c1.3,0.4,2.3,0.7,3.1,1c0.7,0.3,1.3,0.7,1.8,1.2c1,1.1,1,2.7-0.1,3.7c-0.1,0.1-0.2,0.2-0.4,0.3c-1,0.5-2.1,0.8-3.3,0.8H3.1L0,26.8
	h11c1.7,0,3.5-0.3,5.1-0.9c1.4-0.5,2.6-1.5,3.5-2.7c0.9-1.2,1.3-2.7,1.3-4.2C21,17.6,20.5,16.2,19.7,15z" />
</svg>